<?xml version="1.0" encoding="UTF-8" standalone="no"?>
<svg
   xmlns:dc="http://purl.org/dc/elements/1.1/"
   xmlns:cc="http://creativecommons.org/ns#"
   xmlns:rdf="http://www.w3.org/1999/02/22-rdf-syntax-ns#"
   xmlns:svg="http://www.w3.org/2000/svg"
   xmlns="http://www.w3.org/2000/svg"
   height="275"
   width="275"
   id="svg2"
   xml:space="preserve"
   enable-background="new 0 0 283.46 283.46"
   viewBox="0 0 275.00001 274.99999"
   y="0px"
   x="0px"
   version="1.1"><metadata
     id="metadata22"><rdf:RDF><cc:Work
         rdf:about=""><dc:format>image/svg+xml</dc:format><dc:type
           rdf:resource="http://purl.org/dc/dcmitype/StillImage" /><dc:title></dc:title></cc:Work></rdf:RDF></metadata><defs
     id="defs20" /><g
     transform="translate(-9.0284996,75.184483)"
     id="g3351"><path
       id="path6"
       d="m 248.335,62.313018 c 0,2.4 -1.02,4.69 -2.8,6.31 l -18.5,16.75 c -3.48,3.15 -8.85,2.88 -12.01,-0.6 -3.15,-3.48 -2.88,-8.86 0.6,-12.01 l 2.14,-1.94 -19.09,0 c -5.92,0 -10.74,4.82 -10.74,10.74 0,15.31 -12.46,27.760002 -27.76,27.760002 l -23,0 c -5.92,0 -10.74,4.82 -10.74,10.74 0,15.31 -12.46,27.76 -27.76,27.76 l -17.75,0 c -4.7,0 -8.5,-3.81 -8.5,-8.51 0,-4.69 3.8,-8.5 8.5,-8.5 l 17.75,0 c 5.93,0 10.75,-4.82 10.75,-10.75 0,-7.47 2.97,-14.25 7.79,-19.25 -4.82,-4.990002 -7.79,-11.780002 -7.79,-19.250002 0,-5.92 -4.82,-10.74 -10.75,-10.74 l -17.75,0 c -4.7,0 -8.5,-3.81 -8.5,-8.51 0,-4.69 3.8,-8.5 8.5,-8.5 l 17.75,0 c 15.3,0 27.76,12.45 27.76,27.75 0,5.93 4.82,10.75 10.74,10.75 l 23,0 c 5.93,0 10.75,-4.82 10.75,-10.75 0,-7.47 2.97,-14.25 7.79,-19.25 -4.82,-4.99 -7.79,-11.78 -7.79,-19.25 0,-5.92 -4.82,-10.74 -10.75,-10.74 l -23,0 c -15.3,0 -27.75,-12.45 -27.75,-27.76 0,-5.92 -4.82,-10.74 -10.75,-10.74 l -17.75,0 c -4.7,0 -8.5,-3.81 -8.5,-8.51 0,-4.69 3.8,-8.5 8.5,-8.5 l 17.75,0 c 15.3,0 27.76,12.45 27.76,27.75 0,5.93 4.82,10.75 10.74,10.75 l 23,0 c 15.3,0 27.76,12.45 27.76,27.75 0,5.93 4.82,10.75 10.74,10.75 l 19.09,0 -2.14,-1.94 c -3.48,-3.16 -3.75,-8.53 -0.6,-12.02 1.68,-1.85 3.99,-2.79 6.31,-2.79 2.03,0 4.08,0.73 5.7,2.2 l 18.5,16.75 c 1.78,1.61 2.8,3.9 2.8,6.3 z" /><circle
       cx="53.285999"
       cy="139.37102"
       r="8.5640001"
       id="circle8" /><circle
       cx="53.285999"
       cy="62.316025"
       r="8.5640001"
       id="circle10" /><circle
       cx="53.285999"
       cy="-14.739983"
       r="8.5640001"
       id="circle12" /></g></svg>